<svg width="164" height="80" viewBox="0 0 164 80" fill="none" xmlns="http://www.w3.org/2000/svg">
<rect width="164" height="80" fill="white"/>
<path d="M43.1421 44.7297L40.9414 45.8109V37.6934L43.1421 36.6122V44.7297ZM46.1296 43.2624L43.9289 44.3436V36.226L46.1296 35.1448V43.2624ZM46.9165 42.8763V34.7587L49.1172 33.6775V41.7951L46.9165 42.8763Z" fill="#161616"/>
<path d="M40.1714 43.623V45.8069L32 41.7953V39.6115L40.1714 43.623ZM40.1714 40.654V42.8379L32 38.8263V36.6424L40.1714 40.654ZM40.1714 37.6893V39.8732L32 35.8616V33.6777L40.1714 37.6893Z" fill="#FF9500"/>
<path d="M54.314 31.1042V43.6407H60.7284C63.7372 43.6407 65.6594 42.2826 65.6594 40.1305C65.6594 38.5425 64.6774 37.2889 63.1312 36.9755C64.4267 36.5994 65.2624 35.5338 65.2624 34.2802C65.2624 32.3579 63.382 31.1252 60.4568 31.1252H54.314V31.1042ZM58.0122 33.9041H60.2688C61.0001 33.9041 61.4597 34.301 61.4597 34.9488C61.4597 35.6174 61.0001 36.0353 60.2688 36.0353H58.0122V33.9041ZM58.0122 38.5634H60.2688C61.209 38.5634 61.8149 38.9813 61.8149 39.6708C61.8149 40.4021 61.2299 40.8618 60.2688 40.8618H58.0122V38.5634Z" fill="#FF9500"/>
<path d="M71.6147 31.1042H67.8955V43.6407H71.6147V31.1042Z" fill="#FF9500"/>
<path d="M83.5042 34.0712V31.1042H73.8721V34.0712H76.8181V43.6407H80.5582V34.0712H83.5042Z" fill="#FF9500"/>
<path d="M91.5579 31C87.6716 31 84.8091 33.6953 84.8091 37.3518C84.8091 41.05 87.6089 43.8081 91.4325 43.8081C93.3339 43.8081 95.3815 42.8678 96.7396 41.3844L94.5875 39.086C93.7308 39.9636 92.5608 40.5277 91.5996 40.5277C89.9072 40.5277 88.6118 39.1278 88.6118 37.2891C88.6118 35.4505 89.9072 34.0714 91.5996 34.0714C92.6443 34.0714 93.7935 34.74 94.5875 35.743L96.7396 33.2148C95.465 31.8567 93.4383 31 91.5579 31Z" fill="#FF9500"/>
<path d="M104.491 31C100.562 31 97.6582 33.6744 97.6582 37.3727C97.6582 41.0709 100.562 43.8081 104.491 43.8081C108.419 43.8081 111.323 41.05 111.323 37.3727C111.323 33.6953 108.419 31 104.491 31ZM104.553 34.1132C106.204 34.1132 107.52 35.4922 107.52 37.3936C107.52 39.295 106.204 40.6948 104.553 40.6948C102.903 40.6948 101.482 39.2741 101.482 37.3936C101.482 35.5131 102.882 34.1132 104.553 34.1132Z" fill="#FF9500"/>
<path d="M117.153 31.1045H113.434V43.6409H117.153V31.1045Z" fill="#FF9500"/>
<path d="M131.286 43.6409V31.1045H127.88V38.104L122.573 31.1045H119.397V43.6409H122.803V36.6623L128.11 43.6409H131.286Z" fill="#FF9500"/>
<path d="M57.8604 48.9638V45.8423H56.7637L56.0767 47.4693L55.3897 45.8423H54.293V48.9638H55.1969V47.2524L55.7272 48.6625H56.4021L56.9324 47.2524V48.9638H57.8604Z" fill="#161616"/>
<path d="M60.6085 48.5301L60.7652 48.976H61.8619L60.5964 45.8545H59.5359L58.2222 48.976H59.2828L59.4394 48.5301H60.6085ZM60.3554 47.7828H59.7046L60.03 46.8669L60.3554 47.7828Z" fill="#161616"/>
<path d="M64.1513 47.3247V48.0479C63.9946 48.1081 63.85 48.1563 63.7416 48.1563C63.3318 48.1563 63.0425 47.843 63.0425 47.4091C63.0425 46.9873 63.3318 46.6739 63.7416 46.6739C63.9947 46.6739 64.308 46.8065 64.5129 46.9993L65.0914 46.2882C64.7539 45.999 64.2236 45.8062 63.7416 45.8062C62.7171 45.8062 61.9819 46.4811 61.9819 47.397C61.9819 48.3251 62.693 49 63.6692 49C64.1152 49 64.6937 48.8313 65.0311 48.6023V47.3127H64.1513V47.3247Z" fill="#161616"/>
<path d="M67.7193 48.5301L67.876 48.976H68.9728L67.7073 45.8545H66.6467L65.333 48.976H66.3936L66.5503 48.5301H67.7193ZM67.4662 47.7828H66.8154L67.1408 46.8669L67.4662 47.7828Z" fill="#161616"/>
<path d="M72.0333 46.4931V45.8423H69.2492V46.6377H70.6473L69.189 48.325V48.9759H72.0574V48.1804H70.575L72.0333 46.4931Z" fill="#161616"/>
<path d="M73.5887 45.8423H72.5522V48.9638H73.5887V45.8423Z" fill="#161616"/>
<path d="M77.2399 48.9638V45.8423H76.3119V47.4452L75.0826 45.8423H74.2148V48.9638H75.1549V47.3729L76.3842 48.9638H77.2399Z" fill="#161616"/>
<path d="M80.5061 46.6257V45.8423H77.8667V48.9638H80.5543V48.1804H78.9032V47.7947H80.3615V47.0113H78.9032V46.6257H80.5061Z" fill="#161616"/>
</svg>
